<svg xmlns="http://www.w3.org/2000/svg" width="400" height="98" viewBox="0 0 400 98">
    <defs>
        <clipPath id="b48a6poi8a">
            <path data-name="사각형 1315" style="fill:none" d="M0 0h65.14v60.933H0z"/>
        </clipPath>
    </defs>
    <g data-name="그룹 477" transform="translate(-10 -221)">
        <rect data-name="사각형 1302" width="400" height="98" rx="10" transform="translate(10 221)" style="fill:rgba(53,107,255,.57)"/>
        <text data-name="충전기기 번호를 확인 후 주차 해 주세요." transform="translate(129 282)" style="font-size:14px;font-family:SpoqaHanSansNeo-Light,Spoqa Han Sans Neo;font-weight:300;fill:#fff"><tspan x="0" y="0">충전기기 번호를 확인 후 주차 해 주세요.</tspan></text>
        <text data-name="STEP 2." transform="translate(129 259)" style="font-size:12px;font-family:SpoqaHanSansNeo-Bold,Spoqa Han Sans Neo;font-weight:700;fill:#fff"><tspan x="0" y="0">STEP 2.</tspan></text>
        <circle data-name="타원 37" cx="3" cy="3" r="3" transform="translate(367 303)" style="opacity:.6;fill:#dbeaee"/>
        <circle data-name="타원 38" cx="3" cy="3" r="3" transform="translate(376 303)" style="fill:#fff"/>
        <circle data-name="타원 39" cx="3" cy="3" r="3" transform="translate(385 303)" style="opacity:.6;fill:#fff"/>
        <circle data-name="타원 40" cx="3" cy="3" r="3" transform="translate(394 303)" style="opacity:.6;fill:#fff"/>
        <g data-name="그룹 466">
            <g data-name="그룹 465" transform="translate(42 240)" style="clip-path:url(#b48a6poi8a)">
                <path data-name="패스 2219" d="M48.136 51.333h0a7.5 7.5 0 0 0 7.5-7.5V16.279a7.5 7.5 0 0 1 7.5-7.5" transform="translate(-9.758 -1.779)" style="stroke-linecap:round;stroke-linejoin:round;stroke-width:2px;stroke:#2f3c69;fill:none"/>
                <path data-name="패스 2220" d="M39.528 55.066H5.653V6.587A5.586 5.586 0 0 1 11.239 1h22.7a5.586 5.586 0 0 1 5.587 5.587z" transform="translate(-1.146 -.203)" style="fill:#fff"/>
                <path data-name="패스 2221" d="M39.528 55.066H5.653V6.587A5.586 5.586 0 0 1 11.239 1h22.7a5.586 5.586 0 0 1 5.587 5.587z" transform="translate(-1.146 -.203)" style="stroke-linecap:round;stroke-linejoin:round;stroke-width:2px;stroke:#2f3c69;fill:none"/>
                <path data-name="패스 2222" d="M42.294 74.086H1v-2.511a2.761 2.761 0 0 1 2.761-2.761h35.772a2.761 2.761 0 0 1 2.761 2.761z" transform="translate(-.203 -13.951)" style="fill:#bacfef"/>
                <path data-name="패스 2223" d="M42.294 74.086H1v-2.511a2.761 2.761 0 0 1 2.761-2.761h35.772a2.761 2.761 0 0 1 2.761 2.761z" transform="translate(-.203 -13.951)" style="stroke-linecap:round;stroke-linejoin:round;stroke-width:2px;stroke:#2f3c69;fill:none"/>
                <path data-name="패스 2224" d="M31.3 39.83h-4.474l1.653-10.791-8.986 13.93h4.472l-1.652 10.79z" transform="translate(-3.952 -5.887)" style="fill:#23c7d0"/>
                <path data-name="패스 2225" d="M31.3 39.83h-4.474l1.653-10.791-8.986 13.93h4.472l-1.652 10.79z" transform="translate(-3.952 -5.887)" style="stroke-linecap:round;stroke-linejoin:round;stroke-width:2px;stroke:#2f3c69;fill:none"/>
                <path data-name="패스 2226" d="M35.88 19.606H11.79v-7.054a3.777 3.777 0 0 1 3.777-3.777H32.1a3.777 3.777 0 0 1 3.777 3.777z" transform="translate(-2.39 -1.779)" style="fill:#bacfef"/>
                <path data-name="패스 2227" d="M35.88 19.606H11.79v-7.054a3.777 3.777 0 0 1 3.777-3.777H32.1a3.777 3.777 0 0 1 3.777 3.777z" transform="translate(-2.39 -1.779)" style="stroke-linecap:round;stroke-linejoin:round;stroke-width:2px;stroke:#2f3c69;fill:none"/>
                <path data-name="선 141" transform="translate(13.805 10.795)" style="stroke:#fff;stroke-linecap:round;stroke-linejoin:round;stroke-width:2px;fill:none" d="M0 0h15.279"/>
                <path data-name="선 142" transform="translate(13.805 14.027)" style="stroke:#fff;stroke-linecap:round;stroke-linejoin:round;stroke-width:2px;fill:none" d="M15.279 0H0"/>
                <path data-name="사각형 1313" transform="translate(52.862 4.084)" style="fill:#fff" d="M0 0h2.046v5.822H0z"/>
                <path data-name="사각형 1314" transform="translate(52.862 4.084)" style="stroke-linecap:round;stroke-linejoin:round;stroke-width:2px;stroke:#2f3c69;fill:none" d="M0 0h2.046v5.822H0z"/>
                <path data-name="패스 2228" d="M68.869 10.7V4.874l5.4-.979v7.781z" transform="translate(-13.961 -.79)" style="fill:#fff"/>
                <path data-name="패스 2229" d="M68.869 10.7V4.874l5.4-.979v7.781z" transform="translate(-13.961 -.79)" style="stroke-linecap:round;stroke-linejoin:round;stroke-width:2px;stroke:#2f3c69;fill:none"/>
                <path data-name="패스 2230" d="M75.646 7.161v-2.11h2.977a1.055 1.055 0 0 1 0 2.11z" transform="translate(-15.335 -1.024)" style="fill:#fff"/>
                <path data-name="패스 2231" d="M75.646 7.161v-2.11h2.977a1.055 1.055 0 0 1 0 2.11z" transform="translate(-15.335 -1.024)" style="stroke-linecap:round;stroke-linejoin:round;stroke-width:2px;stroke:#2f3c69;fill:none"/>
                <path data-name="패스 2232" d="M75.646 11.961v-2.11h2.977a1.055 1.055 0 0 1 0 2.11z" transform="translate(-15.335 -1.997)" style="fill:#fff"/>
                <path data-name="패스 2233" d="M75.646 11.961v-2.11h2.977a1.055 1.055 0 0 1 0 2.11z" transform="translate(-15.335 -1.997)" style="stroke-linecap:round;stroke-linejoin:round;stroke-width:2px;stroke:#2f3c69;fill:none"/>
            </g>
        </g>
    </g>
</svg>
