<svg xmlns="http://www.w3.org/2000/svg" width="350" height="98" viewBox="0 0 350 98">
    <defs>
        <clipPath id="lz9xlt0yma">
            <path data-name="사각형 1315" style="fill:none" d="M0 0h58.725v54.933H0z"/>
        </clipPath>
    </defs>
    <g data-name="그룹 481" transform="translate(-10 -221)">
        <rect data-name="사각형 1302" width="350" height="98" rx="10" transform="translate(10 221)" style="fill:#8cabff"/>
        <g data-name="그룹 474">
            <text data-name="충전기기 번호를 확인 후 주차 해 주세요." transform="translate(89 282)" style="font-size:14px;font-family:SpoqaHanSansNeo-Light,Spoqa Han Sans Neo;font-weight:300;fill:#fff"><tspan x="0" y="0">충전기기 번호를 확인 후 주차 해 주세요.</tspan></text>
            <text data-name="STEP 2." transform="translate(89 259)" style="font-size:12px;font-family:SpoqaHanSansNeo-Bold,Spoqa Han Sans Neo;font-weight:700;fill:#fff"><tspan x="0" y="0">STEP 2.</tspan></text>
        </g>
        <g data-name="그룹 471" transform="translate(-50 112)">
            <circle data-name="타원 33" cx="3" cy="3" r="3" transform="translate(367 191)" style="opacity:.6;fill:#dbeaee"/>
            <circle data-name="타원 34" cx="3" cy="3" r="3" transform="translate(376 191)" style="fill:#fff"/>
            <circle data-name="타원 35" cx="3" cy="3" r="3" transform="translate(385 191)" style="opacity:.6;fill:#fff"/>
            <circle data-name="타원 36" cx="3" cy="3" r="3" transform="translate(394 191)" style="opacity:.6;fill:#fff"/>
        </g>
        <g data-name="그룹 466">
            <g data-name="그룹 465" transform="translate(24 243)" style="clip-path:url(#lz9xlt0yma)">
                <path data-name="패스 2219" d="M48.136 47.143h0a6.765 6.765 0 0 0 6.764-6.765V15.54a6.765 6.765 0 0 1 6.765-6.765" transform="translate(-13.537 -2.468)" style="stroke-linecap:round;stroke-linejoin:round;stroke-width:2px;stroke:#2f3c69;fill:none"/>
                <path data-name="패스 2220" d="M36.192 49.742H5.653V6.036A5.036 5.036 0 0 1 10.689 1h20.467a5.036 5.036 0 0 1 5.036 5.036z" transform="translate(-1.59 -.281)" style="fill:#fff"/>
                <path data-name="패스 2221" d="M36.192 49.742H5.653V6.036A5.036 5.036 0 0 1 10.689 1h20.467a5.036 5.036 0 0 1 5.036 5.036z" transform="translate(-1.59 -.281)" style="stroke-linecap:round;stroke-linejoin:round;stroke-width:2px;stroke:#2f3c69;fill:none"/>
                <path data-name="패스 2222" d="M38.228 73.567H1V71.3a2.489 2.489 0 0 1 2.489-2.489h32.25a2.489 2.489 0 0 1 2.489 2.489z" transform="translate(-.281 -19.353)" style="fill:#bacfef"/>
                <path data-name="패스 2223" d="M38.228 73.567H1V71.3a2.489 2.489 0 0 1 2.489-2.489h32.25a2.489 2.489 0 0 1 2.489 2.489z" transform="translate(-.281 -19.353)" style="stroke-linecap:round;stroke-linejoin:round;stroke-width:2px;stroke:#2f3c69;fill:none"/>
                <path data-name="패스 2224" d="M30.137 38.767H26.1l1.49-9.729L19.493 41.6h4.032l-1.489 9.728z" transform="translate(-5.482 -8.167)" style="fill:#23c7d0"/>
                <path data-name="패스 2225" d="M30.137 38.767H26.1l1.49-9.729L19.493 41.6h4.032l-1.489 9.728z" transform="translate(-5.482 -8.167)" style="stroke-linecap:round;stroke-linejoin:round;stroke-width:2px;stroke:#2f3c69;fill:none"/>
                <path data-name="패스 2226" d="M33.508 18.539H11.79v-6.358a3.405 3.405 0 0 1 3.41-3.406h14.9a3.405 3.405 0 0 1 3.406 3.406z" transform="translate(-3.316 -2.468)" style="fill:#bacfef"/>
                <path data-name="패스 2227" d="M33.508 18.539H11.79v-6.358a3.405 3.405 0 0 1 3.41-3.406h14.9a3.405 3.405 0 0 1 3.406 3.406z" transform="translate(-3.316 -2.468)" style="stroke-linecap:round;stroke-linejoin:round;stroke-width:2px;stroke:#2f3c69;fill:none"/>
                <path data-name="선 141" transform="translate(12.446 9.732)" style="stroke:#fff;stroke-linecap:round;stroke-linejoin:round;stroke-width:2px;fill:none" d="M0 0h13.774"/>
                <path data-name="선 142" transform="translate(12.445 12.646)" style="stroke:#fff;stroke-linecap:round;stroke-linejoin:round;stroke-width:2px;fill:none" d="M13.774 0H0"/>
                <path data-name="사각형 1313" transform="translate(47.656 3.682)" style="fill:#fff" d="M0 0h1.844v5.248H0z"/>
                <path data-name="사각형 1314" transform="translate(47.656 3.682)" style="stroke-linecap:round;stroke-linejoin:round;stroke-width:2px;stroke:#2f3c69;fill:none" d="M0 0h1.844v5.248H0z"/>
                <path data-name="패스 2228" d="M68.869 10.026V4.778L73.74 3.9v7.014z" transform="translate(-19.368 -1.096)" style="fill:#fff"/>
                <path data-name="패스 2229" d="M68.869 10.026V4.778L73.74 3.9v7.014z" transform="translate(-19.368 -1.096)" style="stroke-linecap:round;stroke-linejoin:round;stroke-width:2px;stroke:#2f3c69;fill:none"/>
                <path data-name="패스 2230" d="M75.646 6.953v-1.9h2.684a.951.951 0 0 1 0 1.9z" transform="translate(-21.274 -1.421)" style="fill:#fff"/>
                <path data-name="패스 2231" d="M75.646 6.953v-1.9h2.684a.951.951 0 0 1 0 1.9z" transform="translate(-21.274 -1.421)" style="stroke-linecap:round;stroke-linejoin:round;stroke-width:2px;stroke:#2f3c69;fill:none"/>
                <path data-name="패스 2232" d="M75.646 11.753v-1.9h2.684a.951.951 0 0 1 0 1.9z" transform="translate(-21.274 -2.771)" style="fill:#fff"/>
                <path data-name="패스 2233" d="M75.646 11.753v-1.9h2.684a.951.951 0 0 1 0 1.9z" transform="translate(-21.274 -2.771)" style="stroke-linecap:round;stroke-linejoin:round;stroke-width:2px;stroke:#2f3c69;fill:none"/>
            </g>
        </g>
    </g>
</svg>
