<svg xmlns="http://www.w3.org/2000/svg" width="400" height="98" viewBox="0 0 400 98">
    <defs>
        <clipPath id="sq8wr46qla">
            <path data-name="사각형 1307" style="stroke-width:2px;stroke:#707070;fill:none" d="M0 0h54.826v59.63H0z"/>
        </clipPath>
    </defs>
    <g data-name="그룹 478" transform="translate(-10 -333)">
        <rect data-name="사각형 1303" width="400" height="98" rx="10" transform="translate(10 333)" style="fill:rgba(53,107,255,.57)"/>
        <text data-name="충전플러그를 확인 후 차량에 연결 해 주세요." transform="translate(129 394)" style="font-size:14px;font-family:SpoqaHanSansNeo-Light,Spoqa Han Sans Neo;font-weight:300;fill:#fff"><tspan x="0" y="0">충전플러그를 확인 후 차량에 연결 해 주세요.</tspan></text>
        <text data-name="STEP 3." transform="translate(129 371)" style="font-size:12px;font-family:SpoqaHanSansNeo-Bold,Spoqa Han Sans Neo;font-weight:700;fill:#fff"><tspan x="0" y="0">STEP 3.</tspan></text>
        <circle data-name="타원 41" cx="3" cy="3" r="3" transform="translate(367 415)" style="opacity:.6;fill:#dbeaee"/>
        <circle data-name="타원 42" cx="3" cy="3" r="3" transform="translate(376 415)" style="opacity:.6;fill:#fff"/>
        <circle data-name="타원 43" cx="3" cy="3" r="3" transform="translate(385 415)" style="fill:#fff"/>
        <circle data-name="타원 44" cx="3" cy="3" r="3" transform="translate(394 415)" style="opacity:.6;fill:#fff"/>
        <g data-name="그룹 463" transform="translate(42 352)" style="clip-path:url(#sq8wr46qla)">
            <path data-name="패스 2177" d="M35.3 31.737V21.89a3.8 3.8 0 0 0-3.8-3.8H9.509a3.8 3.8 0 0 1 0-7.6h35.408" transform="translate(-1.492 -2.74)" style="stroke:#3d345f;stroke-linecap:round;stroke-linejoin:round;stroke-width:2px;fill:none"/>
            <path data-name="사각형 1304" transform="translate(42.855 1.108)" style="fill:#b0d7e1;stroke-width:2px;stroke:#707070" d="M0 0h4.201v13.275H0z"/>
            <path data-name="사각형 1305" transform="translate(42.855 1.108)" style="stroke:#3d345f;stroke-linecap:round;stroke-linejoin:round;stroke-width:2px;fill:none" d="M0 0h4.201v13.275H0z"/>
            <path data-name="패스 2178" d="M47.2 8.683a5.1 5.1 0 0 1 5.1-5.1h2.892v10.196H52.3a5.1 5.1 0 0 1-5.1-5.1" transform="translate(-12.336 -.937)" style="fill:#b0d7e1;stroke-width:2px;stroke:#707070"/>
            <path data-name="패스 2179" d="M47.2 8.683h0a5.1 5.1 0 0 1 5.1-5.1h2.892v10.196H52.3a5.1 5.1 0 0 1-5.1-5.096z" transform="translate(-12.336 -.937)" style="stroke:#3d345f;stroke-linecap:round;stroke-linejoin:round;stroke-width:2px;fill:none"/>
            <path data-name="패스 2180" d="M70.367 5.485a1.635 1.635 0 0 0-1.636-1.635H63.7v3.271h5.027a1.635 1.635 0 0 0 1.635-1.635" transform="translate(-16.648 -1.006)" style="fill:#fff;stroke-width:2px;stroke:#707070"/>
            <path data-name="패스 2181" d="M70.367 5.485h0a1.635 1.635 0 0 0-1.636-1.635H63.7v3.271h5.027a1.635 1.635 0 0 0 1.64-1.636z" transform="translate(-16.648 -1.006)" style="stroke:#3d345f;stroke-linecap:round;stroke-linejoin:round;stroke-width:2px;fill:none"/>
            <path data-name="패스 2182" d="M70.367 14.329a1.635 1.635 0 0 1-1.635 1.635H63.7v-3.27h5.027a1.636 1.636 0 0 1 1.635 1.635" transform="translate(-16.648 -3.317)" style="fill:#fff;stroke-width:2px;stroke:#707070"/>
            <path data-name="패스 2183" d="M70.367 14.329h0a1.635 1.635 0 0 1-1.635 1.635H63.7v-3.27h5.027a1.636 1.636 0 0 1 1.64 1.635z" transform="translate(-16.648 -3.317)" style="stroke:#3d345f;stroke-linecap:round;stroke-linejoin:round;stroke-width:2px;fill:none"/>
            <path data-name="패스 2184" d="M1.5 43.214h9.2v4.858H6.358A4.858 4.858 0 0 1 1.5 43.214z" transform="translate(-.392 -11.293)" style="fill:#fff;stroke-width:2px;stroke:#707070"/>
            <path data-name="패스 2185" d="M1.5 43.214h9.2v4.858H6.358A4.858 4.858 0 0 1 1.5 43.214z" transform="translate(-.392 -11.293)" style="stroke:#3d345f;stroke-linecap:round;stroke-linejoin:round;stroke-width:2px;fill:none"/>
            <path data-name="패스 2186" d="M61.76 43.214h-9.2v4.858h4.34a4.858 4.858 0 0 0 4.86-4.858z" transform="translate(-13.737 -11.293)" style="fill:#fff;stroke-width:2px;stroke:#707070"/>
            <path data-name="패스 2187" d="M61.76 43.214h-9.2v4.858h4.34a4.858 4.858 0 0 0 4.86-4.858z" transform="translate(-13.737 -11.293)" style="stroke:#3d345f;stroke-linecap:round;stroke-linejoin:round;stroke-width:2px;fill:none"/>
            <path data-name="패스 2188" d="M15.329 75.037h-2.663a2.115 2.115 0 0 1-2.115-2.116v-9.728h6.894v9.728a2.115 2.115 0 0 1-2.116 2.116" transform="translate(-2.757 -16.514)" style="fill:#00b4af;stroke-width:2px;stroke:#707070"/>
            <path data-name="패스 2189" d="M15.329 75.037h-2.663a2.115 2.115 0 0 1-2.115-2.116v-9.728h6.894v9.728a2.115 2.115 0 0 1-2.116 2.116z" transform="translate(-2.757 -16.514)" style="stroke:#3d345f;stroke-linecap:round;stroke-linejoin:round;stroke-width:2px;fill:none"/>
            <path data-name="패스 2190" d="M48.746 75.037h2.664a2.115 2.115 0 0 0 2.115-2.116v-9.728H46.63v9.728a2.115 2.115 0 0 0 2.116 2.116" transform="translate(-12.186 -16.514)" style="fill:#00b4af;stroke-width:2px;stroke:#707070"/>
            <path data-name="패스 2191" d="M48.746 75.037h2.664a2.115 2.115 0 0 0 2.115-2.116v-9.728H46.63v9.728a2.115 2.115 0 0 0 2.116 2.116z" transform="translate(-12.186 -16.514)" style="stroke:#3d345f;stroke-linecap:round;stroke-linejoin:round;stroke-width:2px;fill:none"/>
            <path data-name="패스 2192" d="M42.023 64.641H8.965a5.411 5.411 0 0 1-5.411-5.411V55.2a5.411 5.411 0 0 1 5.411-5.411h33.058a5.411 5.411 0 0 1 5.411 5.411v4.026a5.411 5.411 0 0 1-5.411 5.411" transform="translate(-.929 -13.012)" style="fill:#fff;stroke-width:2px;stroke:#707070"/>
            <rect data-name="사각형 1306" width="43.88" height="14.849" rx="7.326" transform="translate(2.625 36.779)" style="stroke:#3d345f;stroke-linecap:round;stroke-linejoin:round;stroke-width:2px;fill:none"/>
            <path data-name="패스 2193" d="M17.171 58.773a3.023 3.023 0 1 1-3.023-3.023 3.023 3.023 0 0 1 3.023 3.023" transform="translate(-2.907 -14.569)" style="fill:#b0d7e1;stroke-width:2px;stroke:#707070"/>
            <path data-name="패스 2194" d="M53.25 58.773a3.023 3.023 0 1 1-3.023-3.023 3.023 3.023 0 0 1 3.023 3.023" transform="translate(-12.336 -14.569)" style="fill:#b0d7e1;stroke-width:2px;stroke:#707070"/>
            <path data-name="패스 2195" d="M44.172 44.559H10.389l2.087-12.175a3.147 3.147 0 0 1 3.1-2.617h23.4a3.148 3.148 0 0 1 3.1 2.617z" transform="translate(-2.715 -7.779)" style="fill:#fff;stroke-width:2px;stroke:#707070"/>
            <path data-name="패스 2196" d="M44.172 44.559H10.389l2.087-12.175a3.147 3.147 0 0 1 3.1-2.617h23.4a3.148 3.148 0 0 1 3.1 2.617z" transform="translate(-2.715 -7.779)" style="stroke:#3d345f;stroke-linecap:round;stroke-linejoin:round;stroke-width:2px;fill:none"/>
            <path data-name="패스 2197" d="m16.318 42.172 1.27-7.4h22.485l1.269 7.4z" transform="translate(-4.265 -9.086)" style="fill:#b0d7e1;stroke-width:2px;stroke:#707070"/>
        </g>
    </g>
</svg>
