<svg xmlns="http://www.w3.org/2000/svg" width="350" height="98" viewBox="0 0 350 98">
    <defs>
        <clipPath id="ec5xxsj45a">
            <path data-name="사각형 1301" style="fill:none" d="M0 0h50.799v45.853H0z"/>
        </clipPath>
        <clipPath id="5ir9oj3rqb">
            <path data-name="사각형 1300" style="fill:none" d="M0 0h50.799v45.854H0z"/>
        </clipPath>
        <clipPath id="1rt4xl7j8c">
            <path data-name="사각형 1298" style="fill:none" d="M0 0h16.77v5.811H0z"/>
        </clipPath>
        <clipPath id="gbdy9xnrmd">
            <path data-name="사각형 1299" style="fill:none" d="M0 0h13.02v5.811H0z"/>
        </clipPath>
    </defs>
    <g data-name="그룹 480" transform="translate(-10 -109)">
        <rect data-name="사각형 1285" width="350" height="98" rx="10" transform="translate(10 109)" style="fill:#8cabff"/>
        <g data-name="그룹 448">
            <text data-name="선택하신 충전소로 이동해주세요." transform="translate(89 170)" style="font-size:14px;font-family:SpoqaHanSansNeo-Light,Spoqa Han Sans Neo;font-weight:300;fill:#fff"><tspan x="0" y="0">선택하신 충전소로 이동해주세요.</tspan></text>
            <text data-name="STEP 1." transform="translate(89 147)" style="font-size:12px;font-family:SpoqaHanSansNeo-Bold,Spoqa Han Sans Neo;font-weight:700;fill:#fff"><tspan x="0" y="0">STEP 1.</tspan></text>
        </g>
        <g data-name="그룹 458">
            <g data-name="그룹 457" style="clip-path:url(#ec5xxsj45a)" transform="translate(24 135)">
                <g data-name="그룹 456">
                    <g data-name="그룹 455" style="clip-path:url(#5ir9oj3rqb)">
                        <path data-name="패스 2166" d="M20.6 28.082c0 5.413-9.8 17.448-9.8 17.448S1 33.5 1 28.082a9.8 9.8 0 1 1 19.6 0" transform="translate(-.141 -2.582)" style="fill:#23c7d0"/>
                        <path data-name="패스 2167" d="M20.6 28.082c0 5.413-9.8 17.448-9.8 17.448S1 33.5 1 28.082a9.8 9.8 0 1 1 19.6 0z" transform="translate(-.141 -2.582)" style="stroke:#3b3b3d;stroke-linecap:round;stroke-linejoin:round;stroke-width:2px;fill:none"/>
                        <path data-name="패스 2168" d="M15.055 29.175a3.161 3.161 0 1 1-3.161-3.161 3.161 3.161 0 0 1 3.161 3.161" transform="translate(-1.234 -3.675)" style="fill:#fff"/>
                        <path data-name="패스 2169" d="M15.055 29.175a3.161 3.161 0 1 1-3.161-3.161 3.161 3.161 0 0 1 3.161 3.161z" transform="translate(-1.234 -3.675)" style="stroke:#3b3b3d;stroke-linecap:round;stroke-linejoin:round;stroke-width:2px;fill:none"/>
                        <path data-name="패스 2170" d="M55.717 8.413c0 4.094-7.413 13.2-7.413 13.2s-.615-.755-1.646-2.137c-2.009-2.69-5.767-8.144-5.767-11.059a7.413 7.413 0 1 1 14.826 0" transform="translate(-5.777 -.141)" style="fill:#23c7d0"/>
                        <path data-name="패스 2171" d="M55.717 8.413c0 4.094-7.413 13.2-7.413 13.2s-7.413-9.1-7.413-13.2a7.413 7.413 0 1 1 14.826 0z" transform="translate(-5.777 -.141)" style="stroke:#3b3b3d;stroke-linecap:round;stroke-linejoin:round;stroke-width:2px;fill:none"/>
                        <path data-name="패스 2172" d="M51.521 9.24a2.39 2.39 0 1 1-2.391-2.391 2.391 2.391 0 0 1 2.391 2.391" transform="translate(-6.603 -.967)" style="fill:#fff"/>
                        <path data-name="패스 2173" d="M51.521 9.24a2.39 2.39 0 1 1-2.391-2.391 2.391 2.391 0 0 1 2.391 2.391z" transform="translate(-6.603 -.967)" style="stroke:#3b3b3d;stroke-linecap:round;stroke-linejoin:round;stroke-width:2px;fill:none"/>
                        <path data-name="패스 2174" d="M12.415 46.479H45.42a5.37 5.37 0 0 0 5.37-5.37h0a5.37 5.37 0 0 0-5.37-5.37H31.877a5.37 5.37 0 0 1-5.37-5.37h0A5.37 5.37 0 0 1 31.877 25h12.4" transform="translate(-1.754 -3.531)" style="stroke:#3b3b3d;stroke-linecap:round;stroke-linejoin:round;stroke-width:2px;fill:none"/>
                        <g data-name="그룹 451" style="mix-blend-mode:darken;isolation:isolate">
                            <g data-name="그룹 450">
                                <g data-name="그룹 449" style="clip-path:url(#1rt4xl7j8c)" transform="translate(2.276 40.043)">
                                    <path data-name="패스 2175" d="M19.42 49.535c0 1.6-3.754 2.905-8.385 2.905s-8.385-1.3-8.385-2.905 3.75-2.905 8.385-2.905 8.385 1.3 8.385 2.905" transform="translate(-2.65 -46.63)" style="fill:#dadbe1"/>
                                </g>
                            </g>
                        </g>
                        <g data-name="그룹 454" style="mix-blend-mode:darken;isolation:isolate">
                            <g data-name="그룹 453">
                                <g data-name="그룹 452" style="clip-path:url(#gbdy9xnrmd)" transform="translate(36.017 18.59)">
                                    <path data-name="패스 2176" d="M54.962 24.553c0 1.6-2.915 2.905-6.51 2.905s-6.51-1.3-6.51-2.905 2.915-2.905 6.51-2.905 6.51 1.3 6.51 2.905" transform="translate(-41.942 -21.648)" style="fill:#dadbe1"/>
                                </g>
                            </g>
                        </g>
                    </g>
                </g>
            </g>
        </g>
        <g data-name="그룹 470" transform="translate(-50)">
            <circle data-name="타원 33" cx="3" cy="3" r="3" transform="translate(367 191)" style="fill:#dbeaee"/>
            <circle data-name="타원 34" cx="3" cy="3" r="3" transform="translate(376 191)" style="opacity:.6;fill:#fff"/>
            <circle data-name="타원 35" cx="3" cy="3" r="3" transform="translate(385 191)" style="opacity:.6;fill:#fff"/>
            <circle data-name="타원 36" cx="3" cy="3" r="3" transform="translate(394 191)" style="opacity:.6;fill:#fff"/>
        </g>
    </g>
</svg>
