<svg xmlns="http://www.w3.org/2000/svg" width="400" height="98" viewBox="0 0 400 98">
    <defs>
        <clipPath id="np0juojjia">
            <path data-name="사각형 1301" style="fill:none" d="M0 0h59.156v53.397H0z"/>
        </clipPath>
        <clipPath id="wopthspfob">
            <path data-name="사각형 1300" style="fill:none" d="M0 0h59.156v53.397H0z"/>
        </clipPath>
        <clipPath id="5bs2eqjusc">
            <path data-name="사각형 1298" transform="translate(2.65 46.63)" style="fill:none" d="M0 0h19.529v6.766H0z"/>
        </clipPath>
        <clipPath id="tthdcyfggd">
            <path data-name="사각형 1299" transform="translate(41.942 21.648)" style="fill:none" d="M0 0h15.162v6.767H0z"/>
        </clipPath>
    </defs>
    <g data-name="그룹 476" transform="translate(-10 -109)">
        <rect data-name="사각형 1285" width="400" height="98" rx="10" transform="translate(10 109)" style="fill:rgba(53,107,255,.57)"/>
        <g data-name="그룹 448">
            <text data-name="선택하신 충전소로 이동해주세요." transform="translate(129 170)" style="font-size:14px;font-family:SpoqaHanSansNeo-Light,Spoqa Han Sans Neo;font-weight:300;fill:#fff"><tspan x="0" y="0">선택하신 충전소로 이동해주세요.</tspan></text>
            <text data-name="STEP 1." transform="translate(129 147)" style="font-size:12px;font-family:SpoqaHanSansNeo-Bold,Spoqa Han Sans Neo;font-weight:700;fill:#fff"><tspan x="0" y="0">STEP 1.</tspan></text>
        </g>
        <g data-name="그룹 458">
            <g data-name="그룹 457" style="clip-path:url(#np0juojjia)" transform="translate(42 131)">
                <g data-name="그룹 456">
                    <g data-name="그룹 455" style="clip-path:url(#wopthspfob)">
                        <path data-name="패스 2166" d="M23.829 29.695c0 6.3-11.415 20.319-11.415 20.319S1 36 1 29.695a11.415 11.415 0 1 1 22.829 0" style="fill:#23c7d0"/>
                        <path data-name="패스 2167" d="M23.829 29.695c0 6.3-11.415 20.319-11.415 20.319S1 36 1 29.695a11.415 11.415 0 1 1 22.829 0z" style="stroke:#3b3b3d;stroke-linecap:round;stroke-linejoin:round;stroke-width:2px;fill:none"/>
                        <path data-name="패스 2168" d="M16.095 29.695a3.68 3.68 0 1 1-3.681-3.681 3.681 3.681 0 0 1 3.681 3.681" style="fill:#fff"/>
                        <path data-name="패스 2169" d="M16.095 29.695a3.68 3.68 0 1 1-3.681-3.681 3.681 3.681 0 0 1 3.681 3.681z" style="stroke:#3b3b3d;stroke-linecap:round;stroke-linejoin:round;stroke-width:2px;fill:none"/>
                        <path data-name="패스 2170" d="M58.156 9.633C58.156 14.4 49.523 25 49.523 25s-.716-.879-1.917-2.488c-2.339-3.133-6.715-9.484-6.715-12.879a8.632 8.632 0 1 1 17.265 0" style="fill:#23c7d0"/>
                        <path data-name="패스 2171" d="M58.156 9.633C58.156 14.4 49.523 25 49.523 25s-8.632-10.6-8.632-15.367a8.632 8.632 0 1 1 17.265 0z" style="stroke:#3b3b3d;stroke-linecap:round;stroke-linejoin:round;stroke-width:2px;fill:none"/>
                        <path data-name="패스 2172" d="M52.307 9.633a2.783 2.783 0 1 1-2.784-2.784 2.784 2.784 0 0 1 2.784 2.784" style="fill:#fff"/>
                        <path data-name="패스 2173" d="M52.307 9.633a2.783 2.783 0 1 1-2.784-2.784 2.784 2.784 0 0 1 2.784 2.784z" style="stroke:#3b3b3d;stroke-linecap:round;stroke-linejoin:round;stroke-width:2px;fill:none"/>
                        <path data-name="패스 2174" d="M12.415 50.013H50.85a6.254 6.254 0 0 0 6.25-6.253h0a6.254 6.254 0 0 0-6.254-6.253H35.079a6.254 6.254 0 0 1-6.254-6.253h0A6.254 6.254 0 0 1 35.079 25h14.444" style="stroke:#3b3b3d;stroke-linecap:round;stroke-linejoin:round;stroke-width:2px;fill:none"/>
                        <g data-name="그룹 451" style="mix-blend-mode:darken;isolation:isolate">
                            <g data-name="그룹 450">
                                <g data-name="그룹 449" style="clip-path:url(#5bs2eqjusc)">
                                    <path data-name="패스 2175" d="M22.179 50.013c0 1.868-4.372 3.383-9.765 3.383S2.65 51.881 2.65 50.013s4.372-3.383 9.764-3.383 9.765 1.514 9.765 3.383" style="fill:#dadbe1"/>
                                </g>
                            </g>
                        </g>
                        <g data-name="그룹 454" style="mix-blend-mode:darken;isolation:isolate">
                            <g data-name="그룹 453">
                                <g data-name="그룹 452" style="clip-path:url(#tthdcyfggd)">
                                    <path data-name="패스 2176" d="M57.1 25.031c0 1.869-3.394 3.383-7.581 3.383s-7.581-1.514-7.581-3.383 3.394-3.383 7.581-3.383 7.581 1.515 7.581 3.383" style="fill:#dadbe1"/>
                                </g>
                            </g>
                        </g>
                    </g>
                </g>
            </g>
        </g>
        <circle data-name="타원 33" cx="3" cy="3" r="3" transform="translate(367 191)" style="fill:#dbeaee"/>
        <circle data-name="타원 34" cx="3" cy="3" r="3" transform="translate(376 191)" style="opacity:.6;fill:#fff"/>
        <circle data-name="타원 35" cx="3" cy="3" r="3" transform="translate(385 191)" style="opacity:.6;fill:#fff"/>
        <circle data-name="타원 36" cx="3" cy="3" r="3" transform="translate(394 191)" style="opacity:.6;fill:#fff"/>
    </g>
</svg>
