<svg xmlns="http://www.w3.org/2000/svg" width="30" height="30" viewBox="0 0 30 30">
    <path data-name="패스 592" d="M8.833 11.75a3.75 3.75 0 1 0 3.75 3.75 3.714 3.714 0 0 0-3.75-3.75zm13.5 0a3.75 3.75 0 1 0 3.75 3.75 3.714 3.714 0 0 0-3.75-3.75zm-6.75-8.25a12 12 0 1 1-12 12 12.035 12.035 0 0 1 12-12zm0-3a15 15 0 1 0 15 15 15.044 15.044 0 0 0-15-15zm0 4.5a3.75 3.75 0 1 0 3.75 3.75A3.714 3.714 0 0 0 15.583 5zm2.25 3.75a2.131 2.131 0 0 1-.3.9l-.9-.9.9-.9a2.131 2.131 0 0 1 .3.9zm-1.35-1.95-.9.9-.9-.9a2.132 2.132 0 0 1 .9-.3 2.132 2.132 0 0 1 .9.3zm-2.85 2.85a2.132 2.132 0 0 1-.3-.9 2.132 2.132 0 0 1 .3-.9l.9.9zm1.05 1.05.9-.9.9.9a2.132 2.132 0 0 1-.9.3 2.132 2.132 0 0 1-.9-.3zm.9 7.8a3.75 3.75 0 1 0 3.75 3.75 3.714 3.714 0 0 0-3.75-3.75zm2.25 3.75a2.131 2.131 0 0 1-.3.9l-.9-.9.9-.9a2.131 2.131 0 0 1 .3.9zm-1.35-1.95-.9.9-.9-.9a2.132 2.132 0 0 1 .9-.3 2.132 2.132 0 0 1 .9.3zm-2.85 2.85a2.132 2.132 0 0 1-.3-.9 2.132 2.132 0 0 1 .3-.9l.9.9zm1.05 1.05.9-.9.9.9a2.132 2.132 0 0 1-.9.3 2.132 2.132 0 0 1-.9-.3z" transform="translate(-.583 -.5)" style="fill:#797979"/>
</svg>
