<svg xmlns="http://www.w3.org/2000/svg" width="30" height="24" viewBox="0 0 30 24">
    <path data-name="패스 593" d="M6.5 7.5A1.5 1.5 0 1 1 8 9a1.5 1.5 0 0 1-1.5-1.5zM23 9a1.5 1.5 0 1 0-1.5-1.5A1.5 1.5 0 0 0 23 9zm7.5-.105V10.5A13.5 13.5 0 0 1 17 24h-3A13.472 13.472 0 0 1 .5 10.5V8.895A8.886 8.886 0 0 1 9.395 0H21.6a8.886 8.886 0 0 1 8.9 8.895zM19.25 7.5a3.75 3.75 0 1 0 1.1-2.652 3.75 3.75 0 0 0-1.1 2.652zm-15 0a3.75 3.75 0 1 0 1.1-2.652A3.75 3.75 0 0 0 4.25 7.5zm6.75 12A1.5 1.5 0 1 0 9.5 21a1.5 1.5 0 0 0 1.5-1.5zm6.75 0a2.25 2.25 0 1 0-2.25 2.25 2.247 2.247 0 0 0 2.25-2.25zm5.25 0a1.5 1.5 0 1 0-1.5 1.5 1.5 1.5 0 0 0 1.5-1.5zm4.455-8.01A5.873 5.873 0 0 1 23 13.5 5.977 5.977 0 0 1 19.07 3h-7.14A5.977 5.977 0 0 1 8 13.5a5.85 5.85 0 0 1-4.455-2.01 10.566 10.566 0 0 0 3.015 6.42 15.188 15.188 0 0 1 17.88 0 10.566 10.566 0 0 0 3.015-6.42z" transform="translate(-.5)" style="fill:#797979"/>
</svg>
