<svg xmlns="http://www.w3.org/2000/svg" width="30" height="30" viewBox="0 0 30 30">
    <path data-name="패스 594" d="M17.083 11a3 3 0 1 0 3-3 3.009 3.009 0 0 0-3 3zm-9 0a3 3 0 1 0 3-3 3.009 3.009 0 0 0-3 3zm3 6.3a1.936 1.936 0 0 0-1.8-1.8 1.936 1.936 0 0 0-1.8 1.8 1.936 1.936 0 0 0 1.8 1.8 1.824 1.824 0 0 0 1.8-1.8zm7.5 4.2a3 3 0 1 0-3 3 3.009 3.009 0 0 0 3-3zm-3-18a12 12 0 1 1-12 12 12.035 12.035 0 0 1 12-12zm0-3a15 15 0 1 0 15 15 15.044 15.044 0 0 0-15-15zm8.25 16.8a1.8 1.8 0 1 0-3.6 0 1.936 1.936 0 0 0 1.8 1.8 1.729 1.729 0 0 0 1.8-1.8z" transform="translate(-.583 -.5)" style="fill:#797979"/>
</svg>
