<svg xmlns="http://www.w3.org/2000/svg" width="30" height="27" viewBox="0 0 30 27">
    <path data-name="패스 595" d="M23.45 3.25a11.814 11.814 0 0 1 4.05 9 12 12 0 1 1-24 0 12.349 12.349 0 0 1 4.05-9zm1.05-3h-18L5.6 1A14.71 14.71 0 0 0 .5 12.25a15 15 0 1 0 30 0A14.71 14.71 0 0 0 25.4 1zM17 7a2.25 2.25 0 0 0 4.5 0A2.25 2.25 0 0 0 17 7zM9.5 7A2.25 2.25 0 0 0 14 7a2.25 2.25 0 0 0-4.5 0zM8 15.25a3 3 0 1 0-3-3 3.009 3.009 0 0 0 3 3zm6.75 3a3 3 0 1 0-3 3 3.009 3.009 0 0 0 3-3zm.75-3a3 3 0 1 0-3-3 3.009 3.009 0 0 0 3 3zm6.75 3a3 3 0 1 0-3 3 3.009 3.009 0 0 0 3-3zm3.75-6a3 3 0 1 0-3 3 3.009 3.009 0 0 0 3-3z" transform="translate(-.5 -.25)" style="fill:#797979"/>
</svg>
