<svg xmlns="http://www.w3.org/2000/svg" width="16" height="14" viewBox="0 0 16 14">
    <path
		data-name="Icon awesome-camera"
		d="M16 5.75v9a1.5 1.5 0 0 1-1.5 1.5h-13a1.5 1.5 0 0 1-1.5-1.5v-9a1.5 1.5 0 0 1 1.5-1.5h2.75l.384-1.028a1.5 1.5 0 0 1 1.4-.972h3.925a1.5 1.5 0 0 1 1.4.972l.391 1.028h2.75a1.5 1.5 0 0 1 1.5 1.5zm-4.25 4.5A3.75 3.75 0 1 0 8 14a3.753 3.753 0 0 0 3.75-3.75zm-1 0A2.75 2.75 0 1 1 8 7.5a2.754 2.754 0 0 1 2.75 2.75z"
		transform="translate(0 -2.25)"
		style="fill:#191919"
	/>
</svg>
