<svg xmlns="http://www.w3.org/2000/svg" width="24" height="24" viewBox="0 0 24 24">
    <g data-name="Icon ionic-ios-close-circle-outline">
        <path data-name="패스 2240" d="m20.709 19.494-2.829-2.829 2.829-2.829a.858.858 0 0 0-1.209-1.214l-2.829 2.829-2.829-2.829a.858.858 0 1 0-1.213 1.213l2.829 2.829-2.829 2.829a.83.83 0 0 0 0 1.213.852.852 0 0 0 1.213 0l2.829-2.829 2.829 2.831a.862.862 0 0 0 1.213 0 .852.852 0 0 0-.004-1.214z" transform="translate(-4.667 -4.666)" style="fill:#fff"/>
        <path data-name="패스 2241" d="M15.375 4.99a10.381 10.381 0 1 1-7.344 3.04 10.316 10.316 0 0 1 7.344-3.04m0-1.615a12 12 0 1 0 12 12 12 12 0 0 0-12-12z" style="fill:#fff" transform="translate(-3.375 -3.375)"/>
    </g>
</svg>
