<svg xmlns="http://www.w3.org/2000/svg" width="16" height="12" viewBox="0 0 16 12">
    <path data-name="Icon ionic-md-eye-off" d="M10.252 7.025a3.427 3.427 0 0 1 3.638 3.159 2.713 2.713 0 0 1-.261 1.156l2.125 1.844a7.61 7.61 0 0 0 2.5-3 8.676 8.676 0 0 0-8.005-4.738 9.739 9.739 0 0 0-2.9.441L8.92 7.253a4.049 4.049 0 0 1 1.332-.228zM2.978 5.3l1.66 1.441.336.291a7.629 7.629 0 0 0-2.724 3.15 8.667 8.667 0 0 0 8 4.737 9.716 9.716 0 0 0 3.185-.531l.307.266 2.134 1.846.925-.8L3.9 4.5zM7 8.794l1.128.978a1.579 1.579 0 0 0-.057.409 2.051 2.051 0 0 0 2.182 1.894 2.331 2.331 0 0 0 .471-.05l1.127.975a4.028 4.028 0 0 1-1.6.334 3.427 3.427 0 0 1-3.638-3.159A2.812 2.812 0 0 1 7 8.794zm3.134-.494 2.292 1.991.014-.1A2.051 2.051 0 0 0 10.259 8.3z" transform="translate(-2.25 -4.5)" style="fill:#dbdbdb"/>
</svg>
