<svg xmlns="http://www.w3.org/2000/svg" width="32" height="32" viewBox="0 0 32 32">
    <defs>
        <filter id="kcyr1jnn9a" x="0" y="0" width="32" height="32" filterUnits="userSpaceOnUse">
            <feOffset dy="2"/>
            <feGaussianBlur stdDeviation="2" result="blur"/>
            <feFlood flood-color="#858585" flood-opacity=".161"/>
            <feComposite operator="in" in2="blur"/>
            <feComposite in="SourceGraphic"/>
        </filter>
    </defs>
    <g data-name="그룹 256">
        <g style="filter:url(#kcyr1jnn9a)">
            <circle data-name="타원 14" cx="10" cy="10" r="10" transform="translate(6 4)" style="fill:#dbdbdb"/>
        </g>
        <path data-name="Icon awesome-building" d="M7.786 9.375h-.357V.469A.45.45 0 0 0 7 0H1a.45.45 0 0 0-.429.469v8.906H.214A.225.225 0 0 0 0 9.609V10h8v-.391a.225.225 0 0 0-.214-.234zm-5.5-7.891A.225.225 0 0 1 2.5 1.25h.714a.225.225 0 0 1 .214.234v.781a.225.225 0 0 1-.214.234H2.5a.225.225 0 0 1-.214-.234zm0 1.875a.225.225 0 0 1 .214-.234h.714a.225.225 0 0 1 .214.234v.781a.225.225 0 0 1-.214.234H2.5a.225.225 0 0 1-.214-.234zm.928 2.891H2.5a.225.225 0 0 1-.214-.234v-.782A.225.225 0 0 1 2.5 5h.714a.225.225 0 0 1 .214.234v.781a.225.225 0 0 1-.214.235zm1.357 3.125H3.429V7.734a.225.225 0 0 1 .214-.234h.714a.225.225 0 0 1 .214.234zm1.143-3.359a.225.225 0 0 1-.214.234h-.714a.225.225 0 0 1-.214-.234v-.782A.225.225 0 0 1 4.786 5H5.5a.225.225 0 0 1 .214.234zm0-1.875a.225.225 0 0 1-.214.234h-.714a.225.225 0 0 1-.214-.234v-.782a.225.225 0 0 1 .214-.234H5.5a.225.225 0 0 1 .214.234zm0-1.875A.225.225 0 0 1 5.5 2.5h-.714a.225.225 0 0 1-.214-.234v-.782a.225.225 0 0 1 .214-.234H5.5a.225.225 0 0 1 .214.234z" transform="translate(12 9)" style="fill:#797979"/>
    </g>
</svg>
