<svg xmlns="http://www.w3.org/2000/svg" width="30" height="36" viewBox="0 0 30 36">
    <path data-name="패스 590" d="M8.833 30a2.307 2.307 0 0 1-2.25 2.25 2.25 2.25 0 0 1 0-4.5A2.307 2.307 0 0 1 8.833 30zm15.75-2.25a2.25 2.25 0 1 0 2.25 2.25 2.307 2.307 0 0 0-2.25-2.25zm6 2.25a6.018 6.018 0 0 1-6 6h-18a6 6 0 0 1 0-12h.45a13.5 13.5 0 1 1 17.1 0h.45a6.018 6.018 0 0 1 6 6zm-15-6a10.5 10.5 0 1 0-10.5-10.5 10.435 10.435 0 0 0 10.5 10.5zm12 6a3.009 3.009 0 0 0-3-3h-18a3 3 0 0 0 0 6h18a3.009 3.009 0 0 0 3-3zM16.933 9.45a2.7 2.7 0 1 1 2.7 2.7 2.689 2.689 0 0 1-2.7-2.7zm-8.1 0a2.7 2.7 0 1 1 2.7 2.7 2.689 2.689 0 0 1-2.7-2.7zm2.7 5.85a1.657 1.657 0 1 1-1.8-1.8 1.824 1.824 0 0 1 1.8 1.8zm6.75 3.75a2.7 2.7 0 1 1-2.7-2.7 2.689 2.689 0 0 1 2.7 2.7zm4.8-3.75a1.65 1.65 0 0 1-3.3 0 1.7 1.7 0 0 1 1.65-1.8 1.8 1.8 0 0 1 1.65 1.8z" transform="translate(-.583)" style="fill:#797979"/>
</svg>
