<svg xmlns="http://www.w3.org/2000/svg" width="30" height="33" viewBox="0 0 30 33">
    <path data-name="패스 591" d="M8.75 27.75A2.307 2.307 0 0 1 6.5 30a2.25 2.25 0 0 1 0-4.5 2.307 2.307 0 0 1 2.25 2.25zM24.5 25.5a2.25 2.25 0 1 0 2.25 2.25 2.307 2.307 0 0 0-2.25-2.25zm0-3.75h-.45a13.611 13.611 0 0 0 0-21H6.95a13.611 13.611 0 0 0 0 21H6.5a6 6 0 1 0 0 12h18a6 6 0 0 0 0-12zM5 11.25a10.679 10.679 0 0 1 3.15-7.5h14.7a10.679 10.679 0 0 1 3.15 7.5 10.5 10.5 0 1 1-21 0zm19.5 19.5h-18a3 3 0 1 1 0-6h18a3 3 0 0 1 0 6zM16.85 7.2a1.95 1.95 0 1 0 3.9 0 2.021 2.021 0 0 0-2.1-1.95 1.86 1.86 0 0 0-1.8 1.95zm-6.45 0a1.95 1.95 0 1 0 1.95-1.95A1.891 1.891 0 0 0 10.4 7.2zm-1.35 7.05a2.528 2.528 0 0 0 2.55-2.55 2.629 2.629 0 0 0-2.55-2.55A2.528 2.528 0 0 0 6.5 11.7a2.629 2.629 0 0 0 2.55 2.55zm5.85 2.55a2.629 2.629 0 0 0-2.55-2.55 2.55 2.55 0 1 0 2.55 2.55zm.6-2.55a2.528 2.528 0 0 0 2.55-2.55 2.55 2.55 0 0 0-5.1 0 2.629 2.629 0 0 0 2.55 2.55zm5.85 2.55a2.629 2.629 0 0 0-2.55-2.55 2.55 2.55 0 1 0 2.55 2.55zm3.15-5.1a2.629 2.629 0 0 0-2.55-2.55 2.55 2.55 0 0 0 0 5.1 2.629 2.629 0 0 0 2.55-2.55z" transform="translate(-.5 -.75)" style="fill:#797979"/>
</svg>
