<svg xmlns="http://www.w3.org/2000/svg" width="42" height="42" viewBox="0 0 42 42">
    <defs>
        <filter id="uoe1nmezqa" x="0" y="0" width="42" height="42" filterUnits="userSpaceOnUse">
            <feOffset dy="3"/>
            <feGaussianBlur stdDeviation="3" result="blur"/>
            <feFlood flood-color="#444" flood-opacity=".161"/>
            <feComposite operator="in" in2="blur"/>
            <feComposite in="SourceGraphic"/>
        </filter>
    </defs>
    <g data-name="그룹 430">
        <g style="filter:url(#uoe1nmezqa)">
            <circle data-name="타원 15" cx="12" cy="12" r="12" transform="translate(9 6)" style="fill:#fff"/>
        </g>
        <path data-name="Icon awesome-star" d="M5.9.347 4.684 2.933l-2.731.416a.633.633 0 0 0-.331 1.066L3.6 6.426l-.469 2.842A.6.6 0 0 0 4 9.926l2.441-1.342 2.443 1.342a.6.6 0 0 0 .867-.658l-.467-2.842 1.976-2.011a.633.633 0 0 0-.331-1.066L8.2 2.933 6.978.347a.588.588 0 0 0-1.078 0z" transform="translate(14.559 13.001)" style="fill:#23c7d0"/>
    </g>
</svg>
