<svg xmlns="http://www.w3.org/2000/svg" width="16" height="16" viewBox="0 0 16 16">
    <g data-name="그룹 388" transform="translate(-149 -311)">
        <rect data-name="사각형 132" width="16" height="16" rx="8" transform="translate(149 311)" style="fill:#23c7d0"/>
        <path data-name="Icon awesome-star" d="M5.9.347 4.684 2.933l-2.731.416a.633.633 0 0 0-.331 1.066L3.6 6.426l-.469 2.842A.6.6 0 0 0 4 9.926l2.441-1.342 2.443 1.342a.6.6 0 0 0 .867-.658l-.467-2.842 1.976-2.011a.633.633 0 0 0-.331-1.066L8.2 2.933 6.978.347a.588.588 0 0 0-1.078 0z" transform="translate(150.559 314.001)" style="fill:#fff"/>
    </g>
</svg>
