<svg xmlns="http://www.w3.org/2000/svg" width="40" height="32" viewBox="0 0 40 32">
    <defs>
        <clipPath id="cgui23wp2a">
            <path data-name="사각형 47" style="fill:none" d="M0 0h40v32H0z"/>
        </clipPath>
    </defs>
    <g data-name="그룹 428">
        <g data-name="그룹 72" style="clip-path:url(#cgui23wp2a)">
            <path data-name="패스 32" d="M33.929 32.245H5.3a5.152 5.152 0 0 1-5.239-5.026V5.51A5.152 5.152 0 0 1 5.3.484h28.629a5.152 5.152 0 0 1 5.242 5.026v21.709a5.152 5.152 0 0 1-5.242 5.026" transform="translate(-.154 .073)" style="fill:#fcdd62"/>
            <path data-name="패스 33" d="M20.4 3.136V0h-1.322v3.136H.428A3.6 3.6 0 0 0 .065 4.33h19.013v6.2H0v1.27h19.078v6.271H0v1.269h19.078v6.2H0v1.256a.044.044 0 0 0 .007.013h19.071v5H20.4v-5h18.717a.265.265 0 0 0 .051-.013v-1.264H20.4v-6.2h18.768v-1.265H20.4V11.8h18.768v-1.274H20.4V4.33h18.659a3.6 3.6 0 0 0-.359-1.194z" transform="translate(-.1 .504)" style="fill:#d8a935"/>
            <path data-name="패스 34" d="M133.96 34.027h-19.186a7.158 7.158 0 0 0-7.455 6.924 6.613 6.613 0 0 0 1.59 4.286 6.7 6.7 0 0 0-1.59 4.319 7.467 7.467 0 0 0 14.91-.024 6.621 6.621 0 0 0-1.59-4.289 4.487 4.487 0 0 0 1.42-2.779h12.148v-7.09a4.877 4.877 0 0 0-.247-1.346" transform="translate(-95.139 -29.79)" style="fill:#fcdd62"/>
            <path data-name="패스 35" d="m116.555 37.094-.068.511a3.674 3.674 0 0 1-1.162 2.291l-.44.523.316.377a5.967 5.967 0 0 1 1.451 3.89 6.828 6.828 0 0 1-13.634.022 6.114 6.114 0 0 1 1.451-3.939l.316-.381-.316-.381a6 6 0 0 1-1.451-3.91 6.513 6.513 0 0 1 6.817-6.32h19.325a3.6 3.6 0 0 0-.363-1.195h-18.962a8.366 8.366 0 0 0-5.714 2.163 7.187 7.187 0 0 0-.948 9.646 7.244 7.244 0 0 0-1.431 4.318 8.106 8.106 0 0 0 16.187-.025 7.02 7.02 0 0 0-1.421-4.248 4.888 4.888 0 0 0 1.156-2.149h11.6v-1.193z" transform="translate(-90.2 -24.944)" style="fill:#d8a935"/>
        </g>
    </g>
</svg>
