<svg xmlns="http://www.w3.org/2000/svg" width="4" height="4" viewBox="0 0 4 4">
    <path data-name="Icon awesome-star-of-life" d="M3.933 2.613 2.8 2l1.133-.613a.121.121 0 0 0 .049-.171L3.715.783a.138.138 0 0 0-.182-.045L2.4 1.35V.125A.129.129 0 0 0 2.267 0h-.534A.129.129 0 0 0 1.6.125V1.35L.467.738a.138.138 0 0 0-.182.046l-.267.433a.121.121 0 0 0 .049.171L1.2 2l-1.133.613a.121.121 0 0 0-.049.171l.267.433a.139.139 0 0 0 .182.046L1.6 2.65v1.225A.129.129 0 0 0 1.733 4h.534a.129.129 0 0 0 .133-.125V2.65l1.133.613a.138.138 0 0 0 .182-.046l.267-.433a.121.121 0 0 0-.049-.171z" style="fill:red"/>
</svg>
