<svg xmlns="http://www.w3.org/2000/svg" width="14" height="10" viewBox="0 0 14 10">
    <g data-name="Icon ionic-ios-eye">
        <path data-name="패스 74" d="M9.244 7.875c-2.512 0-4.493 1.757-6.862 4.628a.6.6 0 0 0 0 .74c2.028 2.49 3.815 4.632 6.865 4.632 3.012 0 5.272-2.7 6.878-4.653a.591.591 0 0 0 .016-.719C14.5 10.3 12.235 7.875 9.244 7.875zM9.382 16a2.982 2.982 0 0 1-2.94-3.267 2.989 2.989 0 0 1 2.677-2.98 2.982 2.982 0 0 1 2.94 3.267A2.989 2.989 0 0 1 9.382 16z" transform="translate(-2.252 -7.875)" style="fill:#dbdbdb"/>
        <path data-name="패스 75" d="M15.751 14.231a2.421 2.421 0 0 1 .109-.726h-.109a2.584 2.584 0 0 0-2.243 2.961 2.552 2.552 0 0 0 2.071 2.531A2.494 2.494 0 0 0 18 16.25v-.168a1.324 1.324 0 0 1-.64.168 1.852 1.852 0 0 1-1.609-2.019z" transform="translate(-8.752 -11.25)" style="fill:#dbdbdb"/>
    </g>
</svg>
