<svg xmlns="http://www.w3.org/2000/svg" width="36" height="36" viewBox="0 0 36 36">
    <defs>
        <filter id="18u82doqja" x="0" y="0" width="36" height="36" filterUnits="userSpaceOnUse">
            <feOffset dy="2"/>
            <feGaussianBlur stdDeviation="2" result="blur"/>
            <feFlood flood-color="#6e6e6e" flood-opacity=".161"/>
            <feComposite operator="in" in2="blur"/>
            <feComposite in="SourceGraphic"/>
        </filter>
    </defs>
    <g data-name="그룹 272">
        <g style="filter:url(#18u82doqja)" data-name="그룹 270">
            <circle data-name="타원 12" cx="12" cy="12" r="12" transform="translate(6 4)" style="fill:#fff"/>
        </g>
        <path data-name="Icon material-zoom-out-map" d="m12.5 4.5 1.533 1.533-1.926 1.914.947.947 1.913-1.927L16.5 8.5v-4zm-8 4 1.533-1.533 1.914 1.926.947-.947-1.927-1.913L8.5 4.5h-4zm4 8-1.533-1.533 1.927-1.913-.947-.947-1.914 1.926L4.5 12.5v4zm8-4-1.533 1.533-1.913-1.927-.947.947 1.927 1.913L12.5 16.5h4z" transform="translate(7.5 5.5)" style="fill:#23c7d0"/>
    </g>
</svg>
