<svg xmlns="http://www.w3.org/2000/svg" width="18" height="20" viewBox="0 0 18 20">
    <defs>
        <clipPath id="a74zg4m60a">
            <path data-name="사각형 1250" style="fill:none" d="M0 0h18v20H0z"/>
        </clipPath>
    </defs>
    <g data-name="그룹 403">
        <g data-name="그룹 402" style="clip-path:url(#a74zg4m60a)">
            <path data-name="패스 1572" d="M8.337 52.4a1.853 1.853 0 0 1-2.537 0l-3.024-2.893a1.662 1.662 0 0 1 0-2.425 1.852 1.852 0 0 1 2.537 0l3.025 2.891a1.662 1.662 0 0 1 0 2.425" transform="translate(-1.77 -37.078)" style="fill:#fff"/>
            <path data-name="패스 1573" d="M5.3 51.57a2.313 2.313 0 0 1-1.608-.637L.666 48.041a2.107 2.107 0 0 1 0-3.074 2.312 2.312 0 0 1 1.608-.637 2.312 2.312 0 0 1 1.608.637l3.025 2.891a2.11 2.11 0 0 1 0 3.075 2.312 2.312 0 0 1-1.607.637m-3.026-6.322a1.338 1.338 0 0 0-.929.368 1.217 1.217 0 0 0 0 1.776l3.025 2.892a1.356 1.356 0 0 0 1.858 0 1.219 1.219 0 0 0 0-1.776L3.2 45.616a1.338 1.338 0 0 0-.929-.368" transform="translate(0 -35.287)" style="fill:#f80"/>
            <path data-name="패스 1574" d="M18.632 13.888V4.675a1.476 1.476 0 0 1 2.948 0V3.659a1.476 1.476 0 0 1 2.948 0v.4a1.476 1.476 0 0 1 2.949 0V7.1a1.476 1.476 0 0 1 2.948 0v8.56a5.807 5.807 0 0 1-5.933 5.672h-1.32a6 6 0 0 1-4.92-2.5l-1.847-2.172" transform="translate(-12.905 -1.791)" style="fill:#fff"/>
            <path data-name="패스 1575" d="M22.723 20H21.4a6.5 6.5 0 0 1-5.3-2.686l-1.833-2.157a.445.445 0 0 1 .07-.646.5.5 0 0 1 .675.067l1.847 2.172a.408.408 0 0 1 .025.033 5.523 5.523 0 0 0 4.522 2.3h1.32a5.343 5.343 0 0 0 5.453-5.213V5.307a1 1 0 0 0-1.988 0v3.317a.481.481 0 0 1-.96 0v-6.36a1 1 0 0 0-1.989 0v6.36a.481.481 0 0 1-.96 0V1.868a.995.995 0 0 0-1.988 0v6.756a.481.481 0 0 1-.96 0v-5.74a1 1 0 0 0-1.989 0V12.1a.481.481 0 0 1-.96 0V2.884a1.915 1.915 0 0 1 1.954-1.869 2.007 2.007 0 0 1 1.078.311A1.949 1.949 0 0 1 21.285 0a1.977 1.977 0 0 1 1.65.868A2 2 0 0 1 24.233.4a1.915 1.915 0 0 1 1.954 1.868V3.7a2.011 2.011 0 0 1 .994-.26 1.915 1.915 0 0 1 1.954 1.869v8.561A6.284 6.284 0 0 1 22.723 20" transform="translate(-11.136)" style="fill:#f80"/>
            <path data-name="패스 1576" d="M27.214 59.3a6.738 6.738 0 0 1 4.836 3.1" transform="translate(-21.407 -47.205)" style="fill:#fff"/>
            <path data-name="패스 1577" d="M30.281 61.072a.485.485 0 0 1-.414-.225 6.266 6.266 0 0 0-4.462-2.879.466.466 0 0 1-.44-.494.475.475 0 0 1 .517-.421 7.177 7.177 0 0 1 5.212 3.326.448.448 0 0 1-.169.629.5.5 0 0 1-.244.064" transform="translate(-19.637 -45.414)" style="fill:#f80"/>
        </g>
    </g>
</svg>
